<svg width="41" height="41" viewBox="0 0 41 41" fill="none" xmlns="http://www.w3.org/2000/svg">
<path d="M19.6667 8H15.3333C12.9401 8 11 9.9401 11 12.3333C11 14.7266 12.9401 16.6667 15.3333 16.6667M19.6667 8V16.6667M19.6667 8H24C26.3932 8 28.3333 9.9401 28.3333 12.3333C28.3333 14.7266 26.3932 16.6667 24 16.6667M15.3333 16.6667H19.6667M15.3333 16.6667C12.9401 16.6667 11 18.6067 11 21C11 23.3933 12.9401 25.3334 15.3333 25.3334M19.6667 16.6667V25.3334M19.6667 16.6667H24M24 16.6667C26.3932 16.6667 28.3333 18.6067 28.3333 21C28.3333 23.3933 26.3932 25.3334 24 25.3334C21.6067 25.3334 19.6667 23.3933 19.6667 21C19.6667 18.6067 21.6067 16.6667 24 16.6667ZM19.6667 25.3334H15.3333M19.6667 25.3334V29.6666C19.6667 32.0599 17.7266 34 15.3333 34C12.9401 34 11 32.0599 11 29.6666C11 27.2735 12.9401 25.3334 15.3333 25.3334" stroke="white" stroke-width="1.82857" stroke-linecap="round" stroke-linejoin="round"/>
</svg>
