<svg width="18" height="18" viewBox="0 0 18 18" fill="none" xmlns="http://www.w3.org/2000/svg">
<path d="M15 12V5.25C15 4.85218 14.8419 4.47064 14.5606 4.18934C14.2793 3.90804 13.8978 3.75 13.5 3.75H4.49999C4.10216 3.75 3.72063 3.90804 3.43932 4.18934C3.15802 4.47064 2.99999 4.85218 2.99999 5.25V12M15 12H2.99999M15 12L15.96 13.9125C16.0178 14.0272 16.0452 14.1549 16.0395 14.2833C16.0338 14.4116 15.9952 14.5364 15.9275 14.6455C15.8597 14.7547 15.765 14.8446 15.6525 14.9067C15.54 14.9688 15.4135 15.0009 15.285 15H2.71499C2.5865 15.0009 2.45994 14.9688 2.34744 14.9067C2.23494 14.8446 2.14028 14.7547 2.07252 14.6455C2.00476 14.5364 1.96618 14.4116 1.96048 14.2833C1.95479 14.1549 1.98216 14.0272 2.03999 13.9125L2.99999 12" stroke="white" stroke-width="1.5" stroke-linecap="round" stroke-linejoin="round"/>
</svg>
