<svg width="100" height="26" viewBox="0 0 100 26" fill="none" xmlns="http://www.w3.org/2000/svg">
<g clip-path="url(#clip0_186_9681)">
<path fill-rule="evenodd" clip-rule="evenodd" d="M4.01234 3.88623H0V21.8845H11.1199V18.3307H4.01234V3.88623Z" fill="white"/>
<path d="M14.7884 7.89857C15.9913 7.89857 16.9665 6.92341 16.9665 5.72048C16.9665 4.5175 15.9913 3.54233 14.7884 3.54233C13.5854 3.54233 12.6102 4.5175 12.6102 5.72048C12.6102 6.92341 13.5854 7.89857 14.7884 7.89857Z" fill="white"/>
<path fill-rule="evenodd" clip-rule="evenodd" d="M12.8395 9.61816H16.6226V21.8845H12.8395V9.61816Z" fill="white"/>
<path fill-rule="evenodd" clip-rule="evenodd" d="M44.9381 9.61816H40.2381L36.1111 14.6623V3.88623H32.2134V21.8845H36.1111V15.9233L40.1234 21.8845H44.9381L40.0088 15.2354L44.9381 9.61816ZM25.9083 9.38888C24.0741 9.38888 22.9277 10.306 22.3545 11.3377H22.2399V9.61816H18.6861V21.8845H22.4692V15.9233C22.4692 14.3183 22.8131 12.7134 24.7619 12.7134C26.5961 12.7134 26.7108 14.6623 26.7108 16.0379V21.9991H30.4938V15.3501C30.3792 11.9109 29.6914 9.38888 25.9083 9.38888Z" fill="white"/>
<path fill-rule="evenodd" clip-rule="evenodd" d="M50.8996 9.38889C47.1163 9.38889 44.1357 11.911 44.1357 15.8087C44.1357 19.7063 47.1163 22.2284 50.8996 22.2284C52.8484 22.2284 54.9119 21.4259 56.0584 19.821L53.4215 17.7575C52.7338 18.6746 51.9314 19.2478 50.6703 19.2478C49.1798 19.2478 48.148 18.3307 47.8044 16.955H56.5167V15.694C56.5167 11.7963 54.3385 9.38889 50.8996 9.38889ZM47.9191 14.433C48.0334 13.2866 48.8361 12.1402 50.6703 12.1402C52.0461 12.1402 52.9631 13.1719 52.9631 14.433H47.9191ZM67.0635 10.8792C66.1465 9.73282 64.7707 9.1596 63.1659 9.1596C59.7266 9.1596 57.6631 12.3695 57.6631 15.694C57.6631 19.3624 60.0707 21.9991 63.6242 21.9991C65.3441 21.9991 66.7195 20.9674 67.4076 20.0503H67.5219V21.7698H70.9611V3.77161H67.1782L67.0635 10.8792ZM64.3123 18.9039C62.4778 18.9039 61.3318 17.5282 61.3318 15.694C61.3318 13.8598 62.4778 12.4841 64.3123 12.4841C66.1465 12.4841 67.2929 13.7452 67.2929 15.694C67.2929 17.6429 66.2611 18.9039 64.3123 18.9039Z" fill="white"/>
<path fill-rule="evenodd" clip-rule="evenodd" d="M98.0159 0.10318H76.4639C75.4321 0.10318 74.6298 0.905648 74.6298 2.05203V23.948C74.6298 24.8651 75.4321 25.8968 76.4639 25.8968H98.0159C99.0476 25.8968 99.85 25.0944 99.85 23.948V1.93739C99.9647 0.905648 99.1623 0.10318 98.0159 0.10318ZM82.0809 21.8845H78.298V9.61818H82.0809V21.8845ZM80.2468 8.01322C79.1004 8.01322 78.0686 7.09612 78.0686 5.83508C78.0686 4.68874 78.9857 3.65697 80.2468 3.65697C81.3933 3.65697 82.425 4.57409 82.425 5.83508C82.425 7.09612 81.5079 8.01322 80.2468 8.01322ZM96.1817 21.8845H92.3984V15.9233C92.3984 14.5476 92.3984 12.5988 90.4496 12.5988C88.5008 12.5988 88.1571 14.2037 88.1571 15.8087V21.7698H84.4885V9.61818H88.0425V11.3377H88.1571C88.7302 10.4206 89.8766 9.38889 91.7107 9.38889C95.4936 9.38889 96.1817 11.911 96.1817 15.2354V21.8845Z" fill="white"/>
</g>
<defs>
<clipPath id="clip0_186_9681">
<rect width="100" height="25.7937" fill="white" transform="translate(0 0.10318)"/>
</clipPath>
</defs>
</svg>
