<svg width="40" height="74" viewBox="0 0 40 74" fill="none" xmlns="http://www.w3.org/2000/svg">
<path d="M29.3009 72C33.3312 71.3636 39.4827 64.9999 36.9374 56.727C33.6324 45.985 19.9219 51.3812 15.4473 53.4763C14.7078 53.8226 14.5546 54.7465 15.1686 55.2849C18.0273 57.7917 25.9249 63.1711 35.0283 56.0907" stroke="white" stroke-width="3.8182" stroke-linecap="round"/>
<path d="M24.4441 48.3477C24.0319 37.1163 9.39195 38.7802 4.52763 39.6457C3.72364 39.7888 3.33653 40.6416 3.79025 41.3206C5.90271 44.4818 12.139 51.722 22.7647 47.239" stroke="white" stroke-width="3.8182" stroke-linecap="round"/>
<path d="M14.1508 38.4181C21.8011 30.1849 10.8462 21.091 6.22097 18.1818C5.5513 17.7145 4.67454 18.0438 4.51527 18.8447C3.77369 22.5738 1.93706 33.1819 13.7473 36.4466" stroke="white" stroke-width="3.8182" stroke-linecap="round"/>
<path d="M13.2837 24.1497C24.0257 20.8447 18.6295 7.13425 16.5345 2.6597C16.1882 1.92013 15.2642 1.76694 14.7258 2.38093C12.2191 5.23959 6.83963 13.1373 13.92 22.2406" stroke="white" stroke-width="3.8182" stroke-linecap="round"/>
</svg>
