<svg width="40" height="40" viewBox="0 0 40 40" fill="none" xmlns="http://www.w3.org/2000/svg">
<path d="M12.5792 36.251C27.6736 36.251 35.9296 23.7455 35.9296 12.9006C35.9296 12.5455 35.9296 12.1919 35.9056 11.8399C37.5117 10.6781 38.8982 9.2397 40 7.59188C38.5023 8.25556 36.9133 8.69071 35.2864 8.88306C36.9992 7.85774 38.282 6.24384 38.8944 4.34384C37.2835 5.2997 35.5209 5.97345 33.6832 6.33587C32.1315 4.68579 29.9643 3.74899 27.6994 3.74899C23.193 3.74899 19.4849 7.45712 19.4849 11.9634C19.4849 12.5885 19.5563 13.2117 19.6976 13.8206C13.1024 13.4901 6.94914 10.3706 2.78398 5.24626C0.618047 8.97485 1.73875 13.8069 5.32477 16.2014C4.01891 16.1627 2.74109 15.8104 1.6 15.1742V15.2782C1.60109 19.1699 4.3693 22.5525 8.18398 23.3231C6.97586 23.6525 5.70797 23.7006 4.47844 23.4638C5.55086 26.7986 8.64336 29.0973 12.1456 29.1631C9.24016 31.4464 5.64898 32.6867 1.95359 32.6831C1.30063 32.6818 0.648281 32.6423 0 32.5646C3.75266 34.9728 8.12031 36.2506 12.5792 36.2446" fill="white"/>
</svg>
